# xmcd
#
# Track frame offsets: 
#        150
#        18993
#        37604
#        50721
#        62569
#        77921
#        93720
#        108990
#        122481
#        136073
#        157726
#        170437
#        189256
#        201687
#        216360
#        228529
#        241686
#        254455
#
# Disc length: 3640 seconds
#
# Revision: 1
# Processed by: cddbd v1.5.2PL0 Copyright (c) Steve Scherf et al.
# Submitted via: ExactAudioCopy v0.99pb5
#
DISCID=ee0e3612
DTITLE=Various Artist - Das grosse Country-Archiv Deutsche Country- unt Truck
DTITLE=ersongs  CD 2
DYEAR=1995
DGENRE=Country
TTITLE0=GUNTER GEBRIEL - Intrecity Linie Nummer 4
TTITLE1=DAGMAR - Gelbe Rosen
TTITLE2=TRUCK STOP - Die Frau mit dem Gurt
TTITLE3=TOM ASTOR - Freunde
TTITLE4=WESTERN UNION - Auf der Autobahn
TTITLE5=LINDA FELLER - Spiel mir noch einmal das Lied
TTITLE6=TRUCKS - Eine Herde weisser Pferde
TTITLE7=IRIS MC COLLINS - Das geht ganz tief rein
TTITLE8=JOE HOTGKINS BOSS BAND - Portland daheim
TTITLE9=JONNY HILL - Ruf Teddybär eins vier
TTITLE10=GREYHOUNDS - Typen mit dem Cowboyhut
TTITLE11=TOM ASTOR - Ich bin kein Dichter, kein Poet
TTITLE12=TRUCK STOP - Der wilde wilde Westen
TTITLE13=HANNA and DAANA - Wenn du wieder da bist
TTITLE14=JONNY HILL - Wenn ich nur fliegen könnte
TTITLE15=LINDA FELLER - Ich weiss genau was ich will
TTITLE16=COUNTRY ROADS - Dagegen hilft nur Country-Music
TTITLE17=DAGMAR - Wir sind alle gleich
EXTD=
EXTT0=
EXTT1=
EXTT2=
EXTT3=
EXTT4=
EXTT5=
EXTT6=
EXTT7=
EXTT8=
EXTT9=
EXTT10=
EXTT11=
EXTT12=
EXTT13=
EXTT14=
EXTT15=
EXTT16=
EXTT17=
PLAYORDER=
